<?xml version="1.0" encoding="utf-8"?>
<!-- Generator: Adobe Illustrator 18.1.1, SVG Export Plug-In . SVG Version: 6.00 Build 0)  -->
<!DOCTYPE svg PUBLIC "-//W3C//DTD SVG 1.1//EN" "http://www.w3.org/Graphics/SVG/1.1/DTD/svg11.dtd">
<svg version="1.1" id="Layer_1" xmlns="http://www.w3.org/2000/svg" xmlns:xlink="http://www.w3.org/1999/xlink" x="0px" y="0px"
	 viewBox="0 105.2 1417.3 384.8" enable-background="new 0 105.2 1417.3 384.8" xml:space="preserve">
<rect y="105.4" fill="none" width="1417.3" height="384.5"/>
<polygon fill="#000000" points="1148.9,402.2 1157,402.2 1157,372.7 1167.4,372.7 1167.4,365.6 1138.5,365.6 1138.5,372.7
	1148.9,372.7 1148.9,402.2 "/>
<path fill="#000000" d="M1120.5,368.4c-1.5-1.4-3.2-2.4-5.2-2.9c-2-0.6-3.9-0.8-6-0.8c-1.8,0-3.5,0.3-5.2,0.7
	c-1.7,0.6-3.2,1.3-4.5,2.2c-1.3,1-2.4,2.2-3.1,3.8c-0.8,1.5-1.1,3.2-1.1,5.2c0,2.1,0.4,3.6,1.3,4.9c0.8,1.3,2,2.2,3.2,2.9
	c1.3,0.7,2.7,1.4,4.1,1.8c1.5,0.4,2.8,0.8,4.1,1.4c1.3,0.6,2.4,1,3.2,1.7c0.8,0.7,1.3,1.5,1.3,2.7c0,0.7-0.1,1.3-0.6,1.7
	c-0.3,0.4-0.7,0.8-1.3,1.1c-0.6,0.3-1.1,0.6-1.8,0.7c-0.7,0.1-1.4,0.3-2,0.3c-1.4,0-2.7-0.3-3.9-0.8c-1.3-0.6-2.2-1.4-3.1-2.5
	l-5.8,6.3c1.8,1.7,3.6,2.8,5.8,3.5c2.1,0.7,4.2,1.1,6.6,1.1c2,0,3.6-0.3,5.5-0.7c1.7-0.4,3.2-1.3,4.5-2.2c1.3-1,2.4-2.2,3.1-3.8
	c0.7-1.5,1.1-3.2,1.1-5.3c0-2.1-0.4-3.8-1.3-5.1c-0.8-1.3-1.8-2.2-3.1-3.1c-1.3-0.7-2.7-1.4-4.1-1.8c-1.4-0.4-2.8-0.8-4.1-1.3
	c-1.3-0.4-2.2-1-3.1-1.5c-0.8-0.6-1.3-1.4-1.3-2.5c0-0.7,0.1-1.3,0.6-1.8c0.3-0.4,0.8-0.8,1.4-1.1c0.6-0.3,1.1-0.6,1.8-0.7
	c0.6-0.1,1.3-0.1,1.8-0.1c1,0,2.1,0.1,3.2,0.6c1.1,0.4,2,1,2.7,1.8L1120.5,368.4z"/>
<rect x="1066.4" y="365.6" fill="#000000" width="8.1" height="36.6"/>
<polygon fill="#000000" points="1024.5,402.2 1047.6,402.2 1047.6,394.7 1032.5,394.7 1032.5,365.6 1024.5,365.6 "/>
<polygon fill="#000000" points="958.7,402.2 966.9,402.2 966.9,372.7 977.2,372.7 977.2,365.6 948.3,365.6 948.3,372.7 958.7,372.7
	958.7,402.2 "/>
<polygon fill="#000000" points="905.8,402.2 913.8,402.2 913.8,387.9 929.1,387.9 929.1,380.4 913.8,380.4 913.8,373 930.4,373
	930.4,365.6 905.8,365.6 "/>
<rect x="875.2" y="365.6" fill="#000000" width="8.1" height="36.6"/>
<path fill="#000000" d="M853.2,380.4h-14.3v7.4h6.6v5.9c-0.7,0.4-1.8,0.8-3.1,1.3c-1.3,0.4-2.8,0.6-4.5,0.6s-3.2-0.3-4.6-0.8
	c-1.4-0.6-2.5-1.4-3.6-2.5c-1-1-1.8-2.2-2.2-3.8c-0.6-1.4-0.8-2.9-0.8-4.8c0-1.7,0.3-3.2,0.8-4.8c0.6-1.4,1.3-2.7,2.2-3.8
	c1-1,2.2-1.8,3.6-2.5c1.4-0.6,2.9-0.8,4.6-0.8c2.1,0,3.8,0.3,5.2,0.8c1.4,0.6,2.7,1.4,3.8,2.5l5.8-6.2c-1.8-1.7-4.1-2.9-6.5-3.6
	c-2.5-0.7-5.2-1.1-8.1-1.1c-2.8,0-5.5,0.4-7.9,1.4c-2.4,0.8-4.5,2.2-6.3,3.8c-1.8,1.7-3.1,3.6-4.1,6c-1,2.4-1.5,5.1-1.5,8
	s0.6,5.6,1.5,8c1,2.4,2.4,4.4,4.1,6c1.8,1.7,3.8,2.9,6.3,3.8c2.4,0.8,5.1,1.4,7.9,1.4c2.7,0,5.3-0.3,7.9-0.8
	c2.5-0.6,5.1-1.4,7.4-2.7v-18.7H853.2z"/>
<path fill="#000000" d="M770.1,380.4h-14.3v7.4h6.6v5.9c-0.7,0.4-1.8,0.8-3.1,1.3c-1.3,0.4-2.8,0.6-4.5,0.6s-3.2-0.3-4.6-0.8
	c-1.4-0.6-2.5-1.4-3.6-2.5c-1-1-1.8-2.2-2.2-3.8c-0.6-1.4-0.8-2.9-0.8-4.8c0-1.7,0.3-3.2,0.8-4.8c0.6-1.4,1.3-2.7,2.2-3.8
	c1-1,2.2-1.8,3.6-2.5c1.4-0.6,2.9-0.8,4.6-0.8c2.1,0,3.8,0.3,5.2,0.8c1.4,0.6,2.7,1.4,3.8,2.5l5.8-6.2c-1.8-1.7-4.1-2.9-6.5-3.6
	c-2.5-0.7-5.2-1.1-8.1-1.1c-2.8,0-5.5,0.4-7.9,1.4c-2.4,0.8-4.5,2.2-6.3,3.8c-1.8,1.7-3.1,3.6-4.1,6s-1.5,5.1-1.5,8s0.6,5.6,1.5,8
	c1,2.4,2.4,4.4,4.1,6c1.8,1.7,3.8,2.9,6.3,3.8c2.4,0.8,5.1,1.4,7.9,1.4c2.7,0,5.3-0.3,7.9-0.8c2.5-0.6,5.1-1.4,7.4-2.7v-18.7H770.1z
	"/>
<polygon fill="#000000" points="679.9,402.2 687.9,402.2 687.9,376.1 688,376.1 704,402.2 714.6,402.2 714.6,365.6 706.6,365.6
	706.6,391 706.4,391 690.8,365.6 679.9,365.6 "/>
<rect x="649.4" y="365.6" fill="#000000" width="8.1" height="36.6"/>
<path fill="#000000" d="M627.4,375.4c-1.1-2.4-2.7-4.2-4.6-5.8c-2-1.4-4.2-2.5-6.9-3.2s-5.5-1-8.4-1h-12.1v36.8h13.1
	c2.7,0,5.3-0.4,7.9-1.1c2.5-0.8,4.6-2,6.6-3.5s3.4-3.4,4.5-5.8c1.1-2.2,1.7-4.9,1.7-7.9C629.1,380.6,628.5,377.8,627.4,375.4z
	 M619.7,388.7c-0.7,1.4-1.5,2.5-2.8,3.5c-1.1,0.8-2.5,1.5-4.2,1.8c-1.5,0.4-3.4,0.6-5.2,0.6h-4.2V373h0.1h4.8c1.7,0,3.4,0.3,4.8,0.7
	c1.5,0.4,2.8,1.1,4.1,2c1.1,0.8,2.1,2,2.7,3.2c0.7,1.3,1,2.9,1,4.6C620.7,385.6,620.4,387.3,619.7,388.7z"/>
<path fill="#000000" d="M573.2,375.4c-1.1-2.4-2.7-4.2-4.6-5.8c-2-1.4-4.2-2.5-6.9-3.2c-2.7-0.7-5.5-1-8.4-1h-12.1v36.8h13.1
	c2.7,0,5.3-0.4,7.9-1.1c2.5-0.8,4.6-2,6.6-3.5s3.4-3.4,4.5-5.8c1.1-2.2,1.7-4.9,1.7-7.9C574.9,380.6,574.4,377.8,573.2,375.4z
	 M565.5,388.7c-0.7,1.4-1.5,2.5-2.8,3.5c-1.1,0.8-2.5,1.5-4.2,1.8c-1.5,0.4-3.4,0.6-5.2,0.6h-4.2V373h0.1h4.8c1.7,0,3.4,0.3,4.8,0.7
	c1.5,0.4,2.8,1.1,4.1,2c1.1,0.8,2.1,2,2.7,3.2c0.7,1.3,1,2.9,1,4.6C566.5,385.6,566.2,387.3,565.5,388.7z"/>
<polygon fill="#000000" points="494,402.2 519.8,402.2 519.8,394.7 502.1,394.7 502.1,387.3 517.8,387.3 517.8,379.9 502,379.9
	502,373 518.8,373 518.8,365.6 494,365.6 "/>
<polygon fill="#000000" points="434.2,402.2 441.1,402.2 449.2,376.8 449.3,376.8 457.5,402.2 464.6,402.2 475.3,365.6 467.2,365.6
	461,389.7 460.8,389.7 453.3,365.6 445.8,365.6 438.1,389 438,389 432.1,365.6 423.2,365.6 "/>
<polygon fill="#000000" points="352.1,402.2 377.9,402.2 377.9,394.7 360.2,394.7 360.2,387.3 376.1,387.3 376.1,379.9 360.2,379.9
	360.2,373 377.1,373 377.1,365.6 352.2,365.6 352.2,402.2 "/>
<polygon fill="#000000" points="297.6,402.2 305.6,402.2 305.6,386.3 321.4,386.3 321.4,402.2 329.4,402.2 329.4,365.6 321.4,365.6
	321.4,379.2 305.6,379.2 305.6,365.6 297.6,365.6 "/>
<polygon fill="#000000" points="260.3,402.2 268.4,402.2 268.4,372.7 278.8,372.7 278.8,365.6 249.9,365.6 249.9,372.7 260.3,372.7
	260.3,402.2 "/>
<g>
	<defs>
		<rect id="SVGID_1_" y="105.4" width="1417.3" height="384.5"/>
	</defs>
	<clipPath id="SVGID_2_">
		<use xlink:href="#SVGID_1_"  overflow="visible"/>
	</clipPath>

		<rect x="0.7" y="106.1" clip-path="url(#SVGID_2_)" fill="none" stroke="#000000" stroke-width="12" width="1415.9" height="383.1"/>
</g>
<rect y="105.4" fill="none" width="1417.3" height="384.5"/>
<path fill="#000000" stroke="#000000" stroke-width="3" stroke-miterlimit="10" d="M1291.6,299.7L1244,190h-4.1l-45,109.7h-12.8v2.1
	h28.6v-2.1h-13.5l16.8-40.6h36.2l17.5,40.6h-14v2.1h50.8v-2.1H1291.6z M1214.8,257.1l17-41.3l17.8,41.3H1214.8z"/>
<path fill="#000000" stroke="#000000" stroke-width="3" stroke-miterlimit="10" d="M1057.2,194.2v2.1h-13.9v103.4h25
	c3.4,0,6.7-0.6,10.1-1.7c3.4-1.1,6.6-2.9,9.5-5.5c2.9-2.5,5.6-5.9,8-10c2.4-4.1,4.2-9,5.5-14.9h2v34.1h-95.8v-2.1h13.9V196.3h-13.9
	v-2.1C1007.6,194.2,1057.2,194.2,1057.2,194.2z"/>
<path fill="#000000" stroke="#000000" stroke-width="3" stroke-miterlimit="10" d="M922.9,224.5c-3.4-6.9-7.6-12.8-12.9-17.5
	c-5.2-4.9-11.4-8.6-18.1-11.2c-6.7-2.7-13.6-3.9-20.6-3.9c-6.5,0-13.1,1.4-19.8,4.1c-6.7,2.7-12.8,6.5-18.2,11.4
	c-5.3,4.9-9.8,10.8-13.3,17.8c-3.5,7-5.2,14.7-5.2,23.3c0,7.9,1.5,15.2,4.6,21.9c3.1,6.7,7.3,12.5,12.5,17.5
	c5.2,5.1,11.2,9,18.1,11.8c6.9,2.9,14,4.4,21.5,4.4s14.7-1.5,21.5-4.5s12.8-7,18-12.2c5.2-5.2,9.3-11.2,12.3-18
	c3.1-6.7,4.6-13.9,4.6-21.5C927.9,239.3,926.2,231.4,922.9,224.5z M902.5,268.7c-0.6,6.7-2,12.5-4.1,17.4s-5.3,8.7-9.5,11.5
	c-4.2,2.8-10.1,4.2-17.5,4.2c-5.6,0-10.5-0.8-14.6-2.4c-4.1-1.7-7.4-4.5-10-8.6c-2.5-4.1-4.4-9.5-5.6-16.4c-1.3-7-1.8-15.7-1.8-26.4
	c0-8,0.4-15.3,1.1-21.9c0.7-6.7,2.1-12.5,4.4-17.3c2.2-4.8,5.5-8.6,9.7-11.2c4.4-2.7,10-4.1,17-4.1c7.6,0,13.5,1.5,17.8,4.4
	c4.2,2.9,7.4,6.7,9.5,11.6c2.1,4.9,3.4,10.5,3.8,17s0.7,13.2,0.7,20.2C903.3,254.7,903,262,902.5,268.7z"/>
<path fill="#000000" stroke="#000000" stroke-width="3" stroke-miterlimit="10" d="M680.7,196.3c-4.1,0-7.6,0.6-10.5,1.7
	c-3.1,1.1-5.6,2.7-8,4.6c-2.2,2-4.2,4.5-6,7.3c-1.7,2.8-3.4,6-4.8,9.5h-2v-25.3h78.3l-61,105.5h27.4c4.1,0,7.9-0.6,11.6-1.7
	c3.8-1.1,7.2-2.9,10.4-5.5c3.2-2.5,5.9-5.9,8.3-10c2.4-4.1,4.2-9,5.5-14.9h2v34.1H641l60.8-105.5H680.7z"/>
<path fill="#000000" stroke="#000000" stroke-width="3" stroke-miterlimit="10" d="M551.4,194.2V220h-2c-0.6-1.7-1.4-3.9-2.5-6.6
	c-1.3-2.7-2.9-5.3-5.1-7.7c-2.1-2.5-4.9-4.8-8.4-6.6c-3.4-1.8-7.6-2.8-12.5-2.8h-24.1v46.7h8.4c3.8,0,6.9-0.6,9.4-1.5
	c2.5-1.1,4.8-2.5,6.5-4.5s3.1-4.4,4.2-7.2c1.1-2.8,2-5.9,2.7-9.3h2v47h-2c-0.7-2.9-1.5-5.8-2.5-8.4s-2.2-5.1-3.8-7.2
	c-1.5-2.1-3.6-3.6-6-4.9c-2.4-1.3-5.3-1.8-8.8-1.8h-10v54.6h24.8c4.6,0,8.8-0.8,12.5-2.4c3.8-1.5,7-3.8,10-6.6
	c2.8-2.8,5.3-6.2,7.2-10c2-3.8,3.4-7.9,4.4-12.2h2v33.1H461v-2.1h13.9V196.3H461v-2.1C461,194.2,551.4,194.2,551.4,194.2z"/>
<path fill="#000000" stroke="#000000" stroke-width="3" stroke-miterlimit="10" d="M381.1,295.8c-1,1-2.2,2.1-3.5,3.2
	c-1.4,1.1-3.1,1.7-5.1,1.7c-1.8,0-3.2-0.4-4.2-1.1c-1-0.7-1.7-2.1-2.2-4.2c-0.6-2.2-1-5.2-1.3-9c-0.4-3.9-0.7-9-1.3-15.3
	c-0.4-5.5-1.4-9.8-3.1-13.1c-1.7-3.2-3.9-5.8-6.7-7.6s-6.2-3.2-10.1-4.1c-3.8-0.8-8.3-1.8-13.2-2.7v-0.7c3.4-0.3,6.9-0.8,10.4-1.8
	s6.7-2.4,9.5-4.2s5.2-4.2,7-7c1.8-2.9,2.7-6.3,2.7-10.4c0-5.1-1.1-9.1-3.5-12.5c-2.4-3.4-5.3-6-9-8c-3.6-2-7.7-3.4-12.1-4.2
	c-4.4-0.8-8.6-1.3-12.5-1.3c-4.2,0-8.4,0.1-12.5,0.3s-8.3,0.3-12.5,0.3h-22.9v2.1h14v103.6h-13.9v2.1H325v-2.1h-13.9v-54.6h10
	c4.8,0,8.4,0.8,11.1,2.7c2.7,1.8,4.6,4.2,5.9,7.3c1.4,3.1,2.1,6.5,2.5,10.4c0.4,3.9,0.7,8,0.8,12.1c0.1,2.7,0.3,5.6,0.7,8.7
	c0.4,3.1,1.3,5.9,2.8,8.6c1.5,2.7,3.9,4.8,7,6.6c3.2,1.8,7.6,2.7,13.1,2.7c2.7,0,4.9-0.1,6.7-0.6c1.8-0.3,3.4-0.8,4.6-1.4
	c1.3-0.7,2.4-1.4,3.4-2.2s2-1.8,2.9-2.8L381.1,295.8z M317.3,243.1h-6.2v-46.7c1.1-0.1,2.2-0.1,3.4-0.3s2.2-0.1,3.4-0.1
	c3.8,0,6.9,0.6,9.4,1.5c2.4,1,4.4,2.5,5.8,4.6c1.4,2.1,2.5,4.6,3.1,7.9c0.6,3.1,0.8,6.9,0.8,11.4c0,2.7-0.1,5.3-0.6,8
	c-0.4,2.7-1.3,4.9-2.5,7c-1.3,2.1-3.2,3.6-5.9,4.9C325.4,242.5,321.8,243.1,317.3,243.1z"/>
<path fill="#000000" stroke="#000000" stroke-width="3" stroke-miterlimit="10" d="M195.3,207.5c-2.9-3.6-6.6-6.5-11.1-8.6
	c-4.4-2.1-9.3-3.5-14.5-4.2s-10.1-1.1-14.6-1.1c-5.2,0-10.2,0.1-15.4,0.3s-10.2,0.3-15.4,0.3h-13.9v2.1h13.9v103.4h-13.9v2.1h49.7
	v-2.1v-0.1h-13.9v-49.1h6.2c8.1,0,15.2-0.7,21-2.2c6-1.5,10.9-3.6,14.9-6.2c3.9-2.7,6.7-5.6,8.7-9.1c1.8-3.5,2.8-7.2,2.8-11.1
	C199.8,216,198.3,211.2,195.3,207.5z M169.4,242.8c-3.8,3.8-10,5.8-18.5,5.8h-4.8v-52.2c0.7-0.1,1.7-0.1,2.7-0.3
	c1.1-0.1,2.1-0.1,3.2-0.1c8.7,0,14.7,2.4,18.1,7c3.4,4.6,5.1,11.4,5.1,20.1C175.1,232.4,173.2,238.8,169.4,242.8z"/>
</svg>
